<?xml version="1.0" ?><svg viewBox="0 0 512 512" xmlns="http://www.w3.org/2000/svg"><title/><g data-name="1" id="_1"><path d="M202.27,449.17a50.33,50.33,0,1,1,50.33-50.32A50.38,50.38,0,0,1,202.27,449.17Zm0-70.65a20.33,20.33,0,1,0,20.33,20.33A20.35,20.35,0,0,0,202.27,378.52Z"/><path d="M373.88,449.17a50.33,50.33,0,1,1,50.32-50.32A50.38,50.38,0,0,1,373.88,449.17Zm0-70.65a20.33,20.33,0,1,0,20.32,20.33A20.35,20.35,0,0,0,373.88,378.52Z"/><path d="M441.13,330.83H139.78a15,15,0,0,1-15-15V101.49A22.53,22.53,0,0,0,102.27,79H70.94a15,15,0,1,1,0-30h31.33a52.57,52.57,0,0,1,52.51,52.51V300.83H441.13a15,15,0,0,1,0,30Z"/><path d="M413.32,278.29H190.5a15,15,0,0,1-15-15V183.58a15,15,0,0,1,15-15H413.32a15,15,0,0,1,15,15v79.71A15,15,0,0,1,413.32,278.29Zm-207.82-30H398.32V198.58H205.5Z"/><path d="M413.32,198.58H190.5a15,15,0,0,1-15-15v-79.7a15,15,0,0,1,15-15H413.32a15,15,0,0,1,15,15v79.7A15,15,0,0,1,413.32,198.58Zm-207.82-30H398.32v-49.7H205.5Z"/></g></svg>